<?xml version="1.0" standalone="no"?>
<!DOCTYPE svg PUBLIC "-//W3C//DTD SVG 20010904//EN"
 "http://www.w3.org/TR/2001/REC-SVG-20010904/DTD/svg10.dtd">
<svg version="1.0" xmlns="http://www.w3.org/2000/svg"
 width="350.000000pt" height="350.000000pt" viewBox="0 0 350.000000 350.000000"
 preserveAspectRatio="xMidYMid meet">
<metadata>
Created by potrace 1.14, written by Peter Selinger 2001-2017
</metadata>
<g transform="translate(0.000000,350.000000) scale(0.100000,-0.100000)"
fill="#000000" stroke="none">
<path d="M3200 2910 c-49 -9 -75 -25 -102 -62 l-23 -33 -1 -865 c-2 -832 -1
-867 17 -905 26 -54 62 -78 123 -82 60 -5 105 18 136 69 19 32 20 53 20 901 0
935 2 895 -52 943 -31 29 -76 42 -118 34z"/>
<path d="M749 2485 c-145 -29 -268 -96 -380 -205 -106 -105 -167 -205 -211
-350 -23 -75 -23 -78 -23 -662 0 -581 0 -587 21 -615 70 -94 210 -82 254 21
15 35 17 71 16 239 0 108 3 197 7 197 5 0 28 -14 52 -30 44 -30 114 -64 170
-82 32 -10 34 -10 105 -27 75 -17 274 -7 355 19 130 41 247 113 334 204 51 53
84 50 152 -15 112 -107 258 -183 394 -207 52 -9 227 -9 285 0 87 13 202 61
287 120 42 28 43 28 43 7 0 -37 31 -89 69 -115 68 -46 162 -24 205 48 l24 40
-3 381 c-2 357 -4 387 -24 460 -82 294 -304 509 -591 571 -96 21 -276 14 -365
-14 -129 -41 -228 -99 -324 -189 -30 -28 -59 -52 -65 -52 -34 -4 -56 7 -101
51 -97 93 -219 162 -347 196 -81 21 -253 26 -339 9z m266 -300 c91 -24 152
-63 245 -156 47 -48 103 -95 125 -104 24 -10 73 -18 120 -20 122 -5 168 16
274 126 111 114 195 157 322 166 216 14 385 -94 478 -307 35 -80 36 -220 3
-308 -93 -243 -349 -377 -582 -303 -93 30 -150 70 -258 184 -64 68 -119 90
-222 91 -116 0 -159 -20 -264 -126 -92 -94 -159 -134 -261 -158 -160 -36 -318
17 -442 150 -133 141 -161 337 -76 519 33 70 140 179 208 211 103 49 224 62
330 35z"/>
<path d="M823 1929 c-18 -5 -49 -26 -69 -46 -139 -138 -46 -367 147 -364 43 1
78 13 179 66 63 33 183 72 264 86 42 7 125 9 220 6 181 -6 249 -24 413 -104
91 -45 121 -55 162 -55 178 2 275 215 158 349 -69 78 -175 95 -268 43 -97 -54
-205 -99 -279 -115 -79 -18 -316 -24 -401 -10 -97 15 -192 47 -295 100 -113
58 -155 66 -231 44z"/>
</g>
</svg>
